<svg width="50" height="50" viewBox="0 0 50 50" fill="none" xmlns="http://www.w3.org/2000/svg">
<path d="M45.4375 8.20833C42.2292 16.2083 34.1875 27.0833 27.4583 32.4792L23.3542 35.7708C22.8333 36.1458 22.3125 36.4792 21.7292 36.7083C21.7292 36.3333 21.7083 35.9167 21.6458 35.5208C21.4167 33.7708 20.625 32.1458 19.2292 30.75C17.8125 29.3333 16.0833 28.5 14.3125 28.2708C13.8958 28.25 13.4792 28.2083 13.0625 28.25C13.2917 27.6042 13.6458 27 14.0833 26.5L17.3333 22.3958C22.7083 15.6667 33.625 7.58333 41.6042 4.39583C42.8333 3.9375 44.0208 4.27083 44.7708 5.04166C45.5625 5.8125 45.9375 7 45.4375 8.20833Z" stroke="#E27244" stroke-width="3.125" stroke-linecap="round" stroke-linejoin="round"/>
<path d="M21.7292 36.7083C21.7292 39 20.8542 41.1875 19.2084 42.8542C17.9375 44.125 16.2084 45 14.1459 45.2708L9.02087 45.8333C6.22921 46.1458 3.83337 43.7708 4.16671 40.9375L4.72921 35.8125C5.22921 31.25 9.04171 28.3333 13.0834 28.25C13.5 28.2292 13.9375 28.25 14.3334 28.2708C16.1042 28.5 17.8334 29.3125 19.25 30.75C20.6459 32.1458 21.4375 33.7708 21.6667 35.5208C21.6875 35.9167 21.7292 36.3125 21.7292 36.7083Z" stroke="#E27244" stroke-width="3.125" stroke-linecap="round" stroke-linejoin="round"/>
<path d="M29.6667 30.1458C29.6667 24.7083 25.25 20.2917 19.8125 20.2917" stroke="#E27244" stroke-width="3.125" stroke-linecap="round" stroke-linejoin="round"/>
</svg>
