<svg width="51" height="51" viewBox="0 0 51 51" fill="none" xmlns="http://www.w3.org/2000/svg">
<g id="vuesax/linear/data">
<g id="data">
<path id="Vector" d="M42.3659 29.3659C44.6671 29.3659 46.5326 27.5004 46.5326 25.1992C46.5326 22.898 44.6671 21.0325 42.3659 21.0325C40.0647 21.0325 38.1992 22.898 38.1992 25.1992C38.1992 27.5004 40.0647 29.3659 42.3659 29.3659Z" stroke="#F3BC4C" stroke-width="2.27988" stroke-linecap="round" stroke-linejoin="round"/>
<path id="Vector_2" d="M42.3659 12.6992C44.6671 12.6992 46.5326 10.8337 46.5326 8.53254C46.5326 6.23136 44.6671 4.36588 42.3659 4.36588C40.0647 4.36588 38.1992 6.23136 38.1992 8.53254C38.1992 10.8337 40.0647 12.6992 42.3659 12.6992Z" stroke="#F3BC4C" stroke-width="2.27988" stroke-linecap="round" stroke-linejoin="round"/>
<path id="Vector_3" d="M42.3659 46.0326C44.6671 46.0326 46.5326 44.1671 46.5326 41.8659C46.5326 39.5647 44.6671 37.6992 42.3659 37.6992C40.0647 37.6992 38.1992 39.5647 38.1992 41.8659C38.1992 44.1671 40.0647 46.0326 42.3659 46.0326Z" stroke="#F3BC4C" stroke-width="2.27988" stroke-linecap="round" stroke-linejoin="round"/>
<path id="Vector_4" d="M9.03251 29.3659C11.3337 29.3659 13.1992 27.5004 13.1992 25.1992C13.1992 22.898 11.3337 21.0325 9.03251 21.0325C6.73132 21.0325 4.86584 22.898 4.86584 25.1992C4.86584 27.5004 6.73132 29.3659 9.03251 29.3659Z" stroke="#F3BC4C" stroke-width="2.27988" stroke-linecap="round" stroke-linejoin="round"/>
<path id="Vector_5" d="M13.1992 25.1992H38.1992" stroke="#F3BC4C" stroke-width="2.27988" stroke-linecap="round" stroke-linejoin="round"/>
<path id="Vector_6" d="M38.1992 8.53253H29.8658C25.6992 8.53253 23.6158 10.6159 23.6158 14.7825V35.6159C23.6158 39.7825 25.6992 41.8659 29.8658 41.8659H38.1992" stroke="#F3BC4C" stroke-width="2.27988" stroke-linecap="round" stroke-linejoin="round"/>
</g>
</g>
</svg>
