<svg width="60" height="60" viewBox="0 0 60 60" fill="none" xmlns="http://www.w3.org/2000/svg">
<g id="vuesax/linear/health">
<g id="health">
<path id="Vector" d="M22.425 55H37.425C49.925 55 54.925 50 54.925 37.5V22.5C54.925 10 49.925 5 37.425 5H22.425C9.92505 5 4.92505 10 4.92505 22.5V37.5C4.92505 50 9.92505 55 22.425 55Z" stroke="#F5B601" stroke-width="3" stroke-linecap="round" stroke-linejoin="round"/>
<path id="Vector_2" d="M4.92505 31.75L19.925 31.7C21.8 31.7 23.9 33.125 24.6 34.875L27.45 42.075C28.1 43.7 29.125 43.7 29.775 42.075L35.5 27.55C36.05 26.15 37.075 26.1 37.775 27.425L40.375 32.35C41.15 33.825 43.15 35.025 44.8 35.025H54.95" stroke="#F5B601" stroke-width="3" stroke-linecap="round" stroke-linejoin="round"/>
</g>
</g>
</svg>
