<svg width="47" height="47" viewBox="0 0 47 47" fill="none" xmlns="http://www.w3.org/2000/svg">
<path d="M37.2076 44.5517C36.4047 44.5517 35.7389 43.8859 35.7389 43.083V21.5413C35.7389 20.7384 36.4047 20.0726 37.2076 20.0726C38.0106 20.0726 38.6764 20.7384 38.6764 21.5413V43.083C38.6764 43.8859 38.0106 44.5517 37.2076 44.5517Z" fill="url(#paint0_linear_61_14167)"/>
<path d="M37.2076 15.1767C36.4047 15.1767 35.7389 14.5109 35.7389 13.708V3.91632C35.7389 3.1134 36.4047 2.44757 37.2076 2.44757C38.0106 2.44757 38.6764 3.1134 38.6764 3.91632V13.708C38.6764 14.5109 38.0106 15.1767 37.2076 15.1767Z" fill="url(#paint1_linear_61_14167)"/>
<path d="M23.5 44.5517C22.6971 44.5517 22.0312 43.8859 22.0312 43.083V33.2913C22.0312 32.4884 22.6971 31.8226 23.5 31.8226C24.3029 31.8226 24.9688 32.4884 24.9688 33.2913V43.083C24.9688 43.8859 24.3029 44.5517 23.5 44.5517Z" fill="url(#paint2_linear_61_14167)"/>
<path d="M23.5 26.9267C22.6971 26.9267 22.0312 26.2609 22.0312 25.458V3.91632C22.0312 3.1134 22.6971 2.44757 23.5 2.44757C24.3029 2.44757 24.9688 3.1134 24.9688 3.91632V25.458C24.9688 26.2609 24.3029 26.9267 23.5 26.9267Z" fill="url(#paint3_linear_61_14167)"/>
<path d="M9.79236 44.5517C8.98944 44.5517 8.32361 43.8859 8.32361 43.083V21.5413C8.32361 20.7384 8.98944 20.0726 9.79236 20.0726C10.5953 20.0726 11.2611 20.7384 11.2611 21.5413V43.083C11.2611 43.8859 10.5953 44.5517 9.79236 44.5517Z" fill="url(#paint4_linear_61_14167)"/>
<path d="M9.79236 15.1767C8.98944 15.1767 8.32361 14.5109 8.32361 13.708V3.91632C8.32361 3.1134 8.98944 2.44757 9.79236 2.44757C10.5953 2.44757 11.2611 3.1134 11.2611 3.91632V13.708C11.2611 14.5109 10.5953 15.1767 9.79236 15.1767Z" fill="url(#paint5_linear_61_14167)"/>
<path d="M13.7083 23.0101H5.875C5.07208 23.0101 4.40625 22.3442 4.40625 21.5413C4.40625 20.7384 5.07208 20.0726 5.875 20.0726H13.7083C14.5113 20.0726 15.1771 20.7384 15.1771 21.5413C15.1771 22.3442 14.5113 23.0101 13.7083 23.0101Z" fill="url(#paint6_linear_61_14167)"/>
<path d="M41.1257 23.0101H33.2924C32.4894 23.0101 31.8236 22.3442 31.8236 21.5413C31.8236 20.7384 32.4894 20.0726 33.2924 20.0726H41.1257C41.9286 20.0726 42.5944 20.7384 42.5944 21.5413C42.5944 22.3442 41.9286 23.0101 41.1257 23.0101Z" fill="url(#paint7_linear_61_14167)"/>
<path d="M27.416 26.9274H19.5826C18.7797 26.9274 18.1139 26.2616 18.1139 25.4587C18.1139 24.6558 18.7797 23.9899 19.5826 23.9899H27.416C28.2189 23.9899 28.8847 24.6558 28.8847 25.4587C28.8847 26.2616 28.2189 26.9274 27.416 26.9274Z" fill="url(#paint8_linear_61_14167)"/>
<defs>
<linearGradient id="paint0_linear_61_14167" x1="37.2076" y1="20.0726" x2="37.2076" y2="44.5517" gradientUnits="userSpaceOnUse">
<stop offset="1" stop-color="#704AF2"/>
</linearGradient>
<linearGradient id="paint1_linear_61_14167" x1="37.2076" y1="2.44757" x2="37.2076" y2="15.1767" gradientUnits="userSpaceOnUse">
<stop offset="1" stop-color="#704AF2"/>
</linearGradient>
<linearGradient id="paint2_linear_61_14167" x1="23.5" y1="31.8226" x2="23.5" y2="44.5517" gradientUnits="userSpaceOnUse">
<stop offset="1" stop-color="#704AF2"/>
</linearGradient>
<linearGradient id="paint3_linear_61_14167" x1="23.5" y1="2.44757" x2="23.5" y2="26.9267" gradientUnits="userSpaceOnUse">
<stop offset="1" stop-color="#704AF2"/>
</linearGradient>
<linearGradient id="paint4_linear_61_14167" x1="9.79236" y1="20.0726" x2="9.79236" y2="44.5517" gradientUnits="userSpaceOnUse">
<stop offset="1" stop-color="#704AF2"/>
</linearGradient>
<linearGradient id="paint5_linear_61_14167" x1="9.79236" y1="2.44757" x2="9.79236" y2="15.1767" gradientUnits="userSpaceOnUse">
<stop offset="1" stop-color="#704AF2"/>
</linearGradient>
<linearGradient id="paint6_linear_61_14167" x1="9.79167" y1="20.0726" x2="9.79167" y2="23.0101" gradientUnits="userSpaceOnUse">
<stop offset="1" stop-color="#704AF2"/>
</linearGradient>
<linearGradient id="paint7_linear_61_14167" x1="37.209" y1="20.0726" x2="37.209" y2="23.0101" gradientUnits="userSpaceOnUse">
<stop offset="1" stop-color="#704AF2"/>
</linearGradient>
<linearGradient id="paint8_linear_61_14167" x1="23.4993" y1="23.9899" x2="23.4993" y2="26.9274" gradientUnits="userSpaceOnUse">
<stop offset="1" stop-color="#704AF2"/>
</linearGradient>
</defs>
</svg>
