<svg width="60" height="60" viewBox="0 0 60 60" fill="none" xmlns="http://www.w3.org/2000/svg">
<path d="M5 5H9.35001C12.05 5 14.175 7.325 13.95 10L11.875 34.9C11.525 38.975 14.75 42.475 18.85 42.475H45.475C49.075 42.475 52.225 39.525 52.5 35.95L53.85 17.2C54.15 13.05 51 9.67499 46.825 9.67499H14.55" stroke="#F5B601" stroke-width="3" stroke-miterlimit="10" stroke-linecap="round" stroke-linejoin="round"/>
<path d="M40.625 55C42.3509 55 43.75 53.6009 43.75 51.875C43.75 50.1491 42.3509 48.75 40.625 48.75C38.8991 48.75 37.5 50.1491 37.5 51.875C37.5 53.6009 38.8991 55 40.625 55Z" stroke="#F5B601" stroke-width="3" stroke-miterlimit="10" stroke-linecap="round" stroke-linejoin="round"/>
<path d="M20.625 55C22.3509 55 23.75 53.6009 23.75 51.875C23.75 50.1491 22.3509 48.75 20.625 48.75C18.8991 48.75 17.5 50.1491 17.5 51.875C17.5 53.6009 18.8991 55 20.625 55Z" stroke="#F5B601" stroke-width="3" stroke-miterlimit="10" stroke-linecap="round" stroke-linejoin="round"/>
<path d="M22.5 20H52.5" stroke="#F5B601" stroke-width="3" stroke-miterlimit="10" stroke-linecap="round" stroke-linejoin="round"/>
</svg>
