<svg width="60" height="60" viewBox="0 0 60 60" fill="none" xmlns="http://www.w3.org/2000/svg">
<path d="M25.125 6.32497L10.075 16.15C5.24999 19.3 5.24999 26.35 10.075 29.5L25.125 39.325C27.825 41.1 32.275 41.1 34.975 39.325L49.95 29.5C54.75 26.35 54.75 19.325 49.95 16.175L34.975 6.34997C32.275 4.54997 27.825 4.54997 25.125 6.32497Z" stroke="#F5B801" stroke-width="3" stroke-linecap="round" stroke-linejoin="round"/>
<path d="M14.075 32.7L14.05 44.425C14.05 47.6 16.5 50.9999 19.5 51.9999L27.475 54.65C28.85 55.1 31.125 55.1 32.525 54.65L40.5 51.9999C43.5 50.9999 45.95 47.6 45.95 44.425V32.825" stroke="#F5B801" stroke-width="3" stroke-linecap="round" stroke-linejoin="round"/>
<path d="M53.5 37.5V22.5" stroke="#F5B801" stroke-width="3" stroke-linecap="round" stroke-linejoin="round"/>
</svg>
