<svg width="37" height="36" viewBox="0 0 37 36" fill="none" xmlns="http://www.w3.org/2000/svg">
<g id="vuesax/linear/security-user">
<g id="security-user">
<g id="Group">
<path id="Vector" d="M16.055 3.34497L8.57005 6.14996C6.84505 6.79496 5.43506 8.83494 5.43506 10.6799V21.8249C5.43506 23.5949 6.60508 25.9199 8.03008 26.9849L14.4801 31.8C16.5951 33.39 20.075 33.39 22.19 31.8L28.6401 26.9849C30.0651 25.9199 31.235 23.5949 31.235 21.8249V10.6799C31.235 8.83494 29.825 6.79496 28.1 6.14996L20.6151 3.34497C19.3401 2.87997 17.3 2.87997 16.055 3.34497Z" stroke="url(#paint0_linear_291_3858)" stroke-width="3.13" stroke-linecap="round" stroke-linejoin="round"/>
</g>
<g id="Group_2">
<path id="Vector_2" d="M18.3199 16.38C18.2599 16.38 18.1848 16.38 18.1248 16.38C16.7148 16.335 15.5898 15.165 15.5898 13.74C15.5898 12.285 16.7749 11.1 18.2299 11.1C19.6849 11.1 20.8699 12.285 20.8699 13.74C20.8549 15.18 19.7299 16.335 18.3199 16.38Z" stroke="url(#paint1_linear_291_3858)" stroke-width="3.13" stroke-linecap="round" stroke-linejoin="round"/>
<path id="Vector_3" d="M15.3349 20.58C13.8949 21.54 13.8949 23.115 15.3349 24.075C16.9699 25.17 19.6549 25.17 21.2899 24.075C22.7299 23.115 22.7299 21.54 21.2899 20.58C19.6699 19.485 16.9849 19.485 15.3349 20.58Z" stroke="url(#paint2_linear_291_3858)" stroke-width="3.13" stroke-linecap="round" stroke-linejoin="round"/>
</g>
</g>
</g>
<defs>
<linearGradient id="paint0_linear_291_3858" x1="18.335" y1="2.99622" x2="18.335" y2="32.9925" gradientUnits="userSpaceOnUse">
<stop stop-color="#3171DE"/>
<stop offset="1" stop-color="#704AF2"/>
</linearGradient>
<linearGradient id="paint1_linear_291_3858" x1="18.2299" y1="11.1" x2="18.2299" y2="16.38" gradientUnits="userSpaceOnUse">
<stop stop-color="#3171DE"/>
<stop offset="1" stop-color="#704AF2"/>
</linearGradient>
<linearGradient id="paint2_linear_291_3858" x1="18.3124" y1="19.7588" x2="18.3124" y2="24.8963" gradientUnits="userSpaceOnUse">
<stop stop-color="#3171DE"/>
<stop offset="1" stop-color="#704AF2"/>
</linearGradient>
</defs>
</svg>
